<mxfile host="www.draw.io" modified="2020-01-17T08:33:27.180Z" agent="Mozilla/5.0 (Macintosh; Intel Mac OS X 10_14_6) AppleWebKit/537.36 (KHTML, like Gecko) Chrome/79.0.3945.117 Safari/537.36" etag="8XCP4wa6wZ2NmukozEKl" version="12.5.5" type="github">
  <diagram id="ss7u2PqzhoZl6DI7c-k8" name="Page-1">
    <mxGraphModel dx="815" dy="521" grid="1" gridSize="10" guides="1" tooltips="1" connect="1" arrows="1" fold="1" page="1" pageScale="1" pageWidth="827" pageHeight="1169" math="0" shadow="0">
      <root>
        <mxCell id="0"/>
        <mxCell id="1" parent="0"/>
        <mxCell id="Fb1C7xSMnvTkJazdJ7ge-29" style="edgeStyle=orthogonalEdgeStyle;orthogonalLoop=1;jettySize=auto;html=1;exitX=0.75;exitY=0;exitDx=0;exitDy=0;entryX=0.25;entryY=1;entryDx=0;entryDy=0;curved=1;" parent="1" source="Fb1C7xSMnvTkJazdJ7ge-3" target="Fb1C7xSMnvTkJazdJ7ge-10" edge="1">
          <mxGeometry relative="1" as="geometry"/>
        </mxCell>
        <mxCell id="Fb1C7xSMnvTkJazdJ7ge-3" value="&lt;font style=&quot;font-size: 15px&quot;&gt;ecNode&lt;/font&gt;" style="rounded=1;whiteSpace=wrap;html=1;" parent="1" vertex="1">
          <mxGeometry x="40" y="310" width="80" height="50" as="geometry"/>
        </mxCell>
        <mxCell id="Fb1C7xSMnvTkJazdJ7ge-4" value="&lt;font style=&quot;font-size: 15px&quot;&gt;ecNode&lt;/font&gt;" style="rounded=1;whiteSpace=wrap;html=1;" parent="1" vertex="1">
          <mxGeometry x="160" y="310" width="80" height="50" as="geometry"/>
        </mxCell>
        <mxCell id="Fb1C7xSMnvTkJazdJ7ge-6" value="&lt;font style=&quot;font-size: 15px&quot;&gt;ecNode&lt;/font&gt;" style="rounded=1;whiteSpace=wrap;html=1;" parent="1" vertex="1">
          <mxGeometry x="280" y="310" width="80" height="50" as="geometry"/>
        </mxCell>
        <mxCell id="Fb1C7xSMnvTkJazdJ7ge-7" value="&lt;font style=&quot;font-size: 15px&quot;&gt;ecNode&lt;/font&gt;" style="rounded=1;whiteSpace=wrap;html=1;" parent="1" vertex="1">
          <mxGeometry x="440" y="310" width="80" height="50" as="geometry"/>
        </mxCell>
        <mxCell id="Fb1C7xSMnvTkJazdJ7ge-8" value="&lt;font style=&quot;font-size: 16px&quot;&gt;......&lt;/font&gt;" style="text;html=1;strokeColor=none;fillColor=none;align=center;verticalAlign=middle;whiteSpace=wrap;rounded=0;" parent="1" vertex="1">
          <mxGeometry x="380" y="322.5" width="50" height="25" as="geometry"/>
        </mxCell>
        <mxCell id="Fb1C7xSMnvTkJazdJ7ge-9" style="edgeStyle=orthogonalEdgeStyle;orthogonalLoop=1;jettySize=auto;html=1;exitX=0;exitY=0.5;exitDx=0;exitDy=0;entryX=0.5;entryY=0;entryDx=0;entryDy=0;curved=1;" parent="1" source="Fb1C7xSMnvTkJazdJ7ge-10" target="Fb1C7xSMnvTkJazdJ7ge-3" edge="1">
          <mxGeometry relative="1" as="geometry">
            <Array as="points">
              <mxPoint x="60" y="185"/>
              <mxPoint x="60" y="310"/>
            </Array>
          </mxGeometry>
        </mxCell>
        <mxCell id="Fb1C7xSMnvTkJazdJ7ge-30" style="edgeStyle=orthogonalEdgeStyle;curved=1;orthogonalLoop=1;jettySize=auto;html=1;entryX=0.5;entryY=0;entryDx=0;entryDy=0;" parent="1" source="Fb1C7xSMnvTkJazdJ7ge-10" target="Fb1C7xSMnvTkJazdJ7ge-25" edge="1">
          <mxGeometry relative="1" as="geometry">
            <Array as="points">
              <mxPoint x="200" y="140"/>
              <mxPoint x="400" y="140"/>
            </Array>
          </mxGeometry>
        </mxCell>
        <mxCell id="Fb1C7xSMnvTkJazdJ7ge-10" value="&lt;font style=&quot;font-size: 15px&quot;&gt;client&lt;/font&gt;" style="rounded=1;whiteSpace=wrap;html=1;" parent="1" vertex="1">
          <mxGeometry x="160" y="160" width="80" height="50" as="geometry"/>
        </mxCell>
        <mxCell id="Fb1C7xSMnvTkJazdJ7ge-11" value="1" style="ellipse;whiteSpace=wrap;html=1;aspect=fixed;" parent="1" vertex="1">
          <mxGeometry x="50" y="210" width="20" height="20" as="geometry"/>
        </mxCell>
        <mxCell id="Fb1C7xSMnvTkJazdJ7ge-15" value="" style="shape=curlyBracket;whiteSpace=wrap;html=1;rounded=1;rotation=-90;" parent="1" vertex="1">
          <mxGeometry x="270" y="170" width="20" height="480" as="geometry"/>
        </mxCell>
        <mxCell id="Fb1C7xSMnvTkJazdJ7ge-16" value="&lt;font style=&quot;font-size: 15px&quot;&gt;EC Partition&lt;/font&gt;" style="text;html=1;strokeColor=none;fillColor=none;align=center;verticalAlign=middle;whiteSpace=wrap;rounded=0;" parent="1" vertex="1">
          <mxGeometry x="235" y="430" width="90" height="20" as="geometry"/>
        </mxCell>
        <mxCell id="Fb1C7xSMnvTkJazdJ7ge-32" style="edgeStyle=orthogonalEdgeStyle;curved=1;orthogonalLoop=1;jettySize=auto;html=1;entryX=0.5;entryY=1;entryDx=0;entryDy=0;exitX=0.5;exitY=1;exitDx=0;exitDy=0;" parent="1" source="Fb1C7xSMnvTkJazdJ7ge-25" target="Fb1C7xSMnvTkJazdJ7ge-10" edge="1">
          <mxGeometry relative="1" as="geometry"/>
        </mxCell>
        <mxCell id="Fb1C7xSMnvTkJazdJ7ge-37" style="edgeStyle=orthogonalEdgeStyle;curved=1;orthogonalLoop=1;jettySize=auto;html=1;entryX=0.5;entryY=0;entryDx=0;entryDy=0;" parent="1" source="Fb1C7xSMnvTkJazdJ7ge-25" target="Fb1C7xSMnvTkJazdJ7ge-6" edge="1">
          <mxGeometry relative="1" as="geometry"/>
        </mxCell>
        <mxCell id="Fb1C7xSMnvTkJazdJ7ge-38" style="edgeStyle=orthogonalEdgeStyle;curved=1;orthogonalLoop=1;jettySize=auto;html=1;entryX=0.5;entryY=0;entryDx=0;entryDy=0;" parent="1" source="Fb1C7xSMnvTkJazdJ7ge-25" target="Fb1C7xSMnvTkJazdJ7ge-8" edge="1">
          <mxGeometry relative="1" as="geometry"/>
        </mxCell>
        <mxCell id="Fb1C7xSMnvTkJazdJ7ge-39" style="edgeStyle=orthogonalEdgeStyle;curved=1;orthogonalLoop=1;jettySize=auto;html=1;exitX=0.5;exitY=1;exitDx=0;exitDy=0;" parent="1" source="Fb1C7xSMnvTkJazdJ7ge-25" edge="1">
          <mxGeometry relative="1" as="geometry">
            <mxPoint x="480" y="300" as="targetPoint"/>
          </mxGeometry>
        </mxCell>
        <mxCell id="Fb1C7xSMnvTkJazdJ7ge-25" value="&lt;font style=&quot;font-size: 15px&quot;&gt;codecNode&lt;/font&gt;" style="rounded=1;whiteSpace=wrap;html=1;" parent="1" vertex="1">
          <mxGeometry x="360" y="160" width="80" height="50" as="geometry"/>
        </mxCell>
        <mxCell id="Fb1C7xSMnvTkJazdJ7ge-31" value="3" style="ellipse;whiteSpace=wrap;html=1;aspect=fixed;" parent="1" vertex="1">
          <mxGeometry x="290" y="110" width="20" height="20" as="geometry"/>
        </mxCell>
        <mxCell id="Fb1C7xSMnvTkJazdJ7ge-33" value="5" style="ellipse;whiteSpace=wrap;html=1;aspect=fixed;" parent="1" vertex="1">
          <mxGeometry x="290" y="200" width="20" height="20" as="geometry"/>
        </mxCell>
        <mxCell id="Fb1C7xSMnvTkJazdJ7ge-36" value="&lt;font style=&quot;font-size: 14px&quot;&gt;2&lt;/font&gt;" style="shape=sumEllipse;perimeter=ellipsePerimeter;whiteSpace=wrap;html=1;backgroundOutline=1;fillColor=none;" parent="1" vertex="1">
          <mxGeometry x="120" y="240" width="20" height="20" as="geometry"/>
        </mxCell>
        <mxCell id="Fb1C7xSMnvTkJazdJ7ge-40" value="4" style="ellipse;whiteSpace=wrap;html=1;aspect=fixed;" parent="1" vertex="1">
          <mxGeometry x="330" y="240" width="20" height="20" as="geometry"/>
        </mxCell>
        <mxCell id="Fb1C7xSMnvTkJazdJ7ge-42" value="4" style="ellipse;whiteSpace=wrap;html=1;aspect=fixed;" parent="1" vertex="1">
          <mxGeometry x="380" y="260" width="20" height="20" as="geometry"/>
        </mxCell>
        <mxCell id="Fb1C7xSMnvTkJazdJ7ge-43" value="4" style="ellipse;whiteSpace=wrap;html=1;aspect=fixed;" parent="1" vertex="1">
          <mxGeometry x="460" y="240" width="20" height="20" as="geometry"/>
        </mxCell>
      </root>
    </mxGraphModel>
  </diagram>
</mxfile>
